<?xml version="1.0" encoding="iso-8859-1"?>
<!-- Generator: Adobe Illustrator 18.0.0, SVG Export Plug-In . SVG Version: 6.00 Build 0)  -->
<!DOCTYPE svg PUBLIC "-//W3C//DTD SVG 1.1//EN" "http://www.w3.org/Graphics/SVG/1.1/DTD/svg11.dtd">
<svg version="1.1" id="Capa_1" xmlns="http://www.w3.org/2000/svg" xmlns:xlink="http://www.w3.org/1999/xlink" x="0px" y="0px"
	 viewBox="0 0 297 297" style="enable-background:new 0 0 297 297;" xml:space="preserve">
<g>
	<g>
		<path style="fill:#60696D;" d="M53.437,212.083l-12.445,45.09C35.463,277.206,50.534,297,71.316,297h0
			c7.521,0,13.947-5.422,15.212-12.836l12.3-72.081H53.437z"/>
	</g>
	<g>
		<polygon style="fill:#D0D5D9;" points="126.203,64.735 97.714,64.735 53.437,212.083 98.828,212.083 		"/>
	</g>
	<g>
		<path style="fill:#444E51;" d="M98.828,212.083l-11.414,66.889C85.806,288.396,93.066,297,102.626,297h30.613
			c8.523,0,15.432-6.909,15.432-15.432v-69.485H98.828z"/>
	</g>
	<g>
		<polygon style="fill:#9EA7AD;" points="148.671,64.735 126.203,64.735 98.828,212.083 148.671,212.083 		"/>
	</g>
	<g>
		<polygon style="fill:#D0D5D9;" points="172.102,64.735 148.671,64.735 148.671,212.083 198.421,212.083 		"/>
	</g>
	<g>
		<path style="fill:#60696D;" d="M148.671,212.083v69.485c0,8.523,6.909,15.432,15.432,15.432h30.079
			c9.52,0,16.77-8.536,15.229-17.93l-10.99-66.987H148.671z"/>
	</g>
	<g>
		<polygon style="fill:#9EA7AD;" points="199.286,64.735 172.102,64.735 198.421,212.083 243.563,212.083 		"/>
	</g>
	<g>
		<path style="fill:#444E51;" d="M198.421,212.083l11.81,71.983c1.224,7.459,7.67,12.934,15.229,12.934h0.225
			c20.782,0,35.853-19.794,30.324-39.827l-12.445-45.09H198.421z"/>
	</g>
	<g>
		<path style="fill:#B3BEC4;" d="M96.351,52.149C96.351,23.348,119.699,0,148.5,0s52.149,23.348,52.149,52.149H96.351z"/>
	</g>
	<g style="opacity:0.66;">
		<path style="fill:#B3BEC4;" d="M185.674,52.149h14.975C200.649,23.348,177.301,0,148.5,0c-2.918,0-5.776,0.251-8.563,0.712
			C164.447,6.018,183.227,26.692,185.674,52.149z"/>
	</g>
	<g>
		<rect x="96.351" y="52.149" style="fill:#F86E51;" width="104.298" height="17.383"/>
	</g>
	<g>
		<rect x="181.923" y="52.149" style="fill:#DD4D36;" width="18.726" height="17.383"/>
	</g>
	<g>
		<rect x="96.351" y="52.149" style="fill:#DD4D36;" width="18.726" height="17.383"/>
	</g>
</g>
<g>
</g>
<g>
</g>
<g>
</g>
<g>
</g>
<g>
</g>
<g>
</g>
<g>
</g>
<g>
</g>
<g>
</g>
<g>
</g>
<g>
</g>
<g>
</g>
<g>
</g>
<g>
</g>
<g>
</g>
</svg>
