<?xml version="1.0" encoding="iso-8859-1"?>
<!-- Generator: Adobe Illustrator 19.0.0, SVG Export Plug-In . SVG Version: 6.00 Build 0)  -->
<svg version="1.1" id="Layer_1" xmlns="http://www.w3.org/2000/svg" xmlns:xlink="http://www.w3.org/1999/xlink" x="0px" y="0px"
	 viewBox="0 0 503.2 503.2" style="enable-background:new 0 0 503.2 503.2;" xml:space="preserve">
<circle style="fill:#5E6664;" cx="251.6" cy="251.2" r="248.8"/>
<path style="fill:#2F423F;" d="M427.6,75.2c96.8,97.6,96.8,254.4,0,352s-254.4,96.8-352,0"/>
<g>
	<rect x="131.6" y="275.2" style="fill:#B5B29C;" width="240" height="8"/>
	<rect x="147.6" y="315.2" style="fill:#B5B29C;" width="208" height="8"/>
	<polygon style="fill:#B5B29C;" points="387.6,227.2 115.6,227.2 115.6,219.2 395.6,219.2 	"/>
	<rect x="91.6" y="163.2" style="fill:#B5B29C;" width="320" height="8"/>
</g>
<path style="fill:#EAE9DA;" d="M152.4,387.2c0,0,0,2.4,0,4c0,62.4,44.8,112,99.2,112s99.2-49.6,99.2-112c0-1.6,0-4,0-4H152.4z"/>
<rect x="147.6" y="339.2" style="fill:#CE3838;" width="208" height="32"/>
<polyline style="fill:#A31A1A;" points="147.6,339.2 355.6,339.2 355.6,371.2 "/>
<path style="fill:#CCCAB6;" d="M350.8,387.2h-99.2v115.2c56,0,99.2-49.6,99.2-111.2C350.8,389.6,350.8,387.2,350.8,387.2z"/>
<polygon style="fill:#EAE9DA;" points="275.6,0 251.6,19.2 227.6,0 227.6,68 251.6,87.2 251.6,87.2 251.6,87.2 251.6,87.2 
	251.6,87.2 275.6,68 "/>
<rect x="247.6" y="59.2" style="fill:#CCCAB6;" width="8" height="264"/>
<g>
	<polygon style="fill:#EAE9DA;" points="206,4.8 181.2,28 151.6,12 161.2,80 190,95.2 190,95.2 190.8,95.2 190.8,95.2 190.8,95.2 
		214.8,72.8 	"/>
	<polygon style="fill:#EAE9DA;" points="137.2,16.8 114.8,42.4 83.6,30.4 100.4,96 131.6,108 131.6,108.8 131.6,108.8 131.6,108.8 
		131.6,108 153.2,83.2 	"/>
	<polygon style="fill:#EAE9DA;" points="70.8,34.4 51.6,62.4 19.6,53.6 43.6,117.6 75.6,126.4 75.6,126.4 75.6,126.4 76.4,126.4 
		76.4,125.6 94.8,98.4 	"/>
</g>
<g>
	<polygon style="fill:#CCCAB6;" points="226.8,323.2 191.6,60 181.2,60.8 215.6,323.2 	"/>
	<polygon style="fill:#CCCAB6;" points="192.4,323.2 128.4,73.6 118.8,75.2 181.2,323.2 	"/>
	<polygon style="fill:#CCCAB6;" points="157.2,323.2 69.2,91.2 59.6,94.4 146,323.2 	"/>
</g>
<g>
	<polygon style="fill:#EAE9DA;" points="297.2,4.8 322,28 351.6,12 342,80 313.2,95.2 313.2,95.2 312.4,95.2 312.4,95.2 312.4,95.2 
		288.4,72.8 	"/>
	<polygon style="fill:#EAE9DA;" points="366,16.8 388.4,42.4 419.6,30.4 402.8,96 371.6,108 371.6,108.8 371.6,108.8 371.6,108.8 
		371.6,108 350,83.2 	"/>
	<polygon style="fill:#EAE9DA;" points="432.4,34.4 451.6,62.4 483.6,53.6 459.6,117.6 427.6,126.4 427.6,126.4 427.6,126.4 
		426.8,126.4 426.8,125.6 408.4,98.4 	"/>
</g>
<g>
	<polyline style="fill:#CCCAB6;" points="251.6,83.2 251.6,87.2 251.6,87.2 251.6,87.2 251.6,87.2 275.6,68 275.6,0 250,17.6 	"/>
	<polyline style="fill:#CCCAB6;" points="190,95.2 190,95.2 190.8,95.2 190.8,95.2 190.8,95.2 214.8,72.8 206,4.8 181.2,28 	"/>
	<polyline style="fill:#CCCAB6;" points="131.6,108 131.6,108.8 131.6,108.8 131.6,108.8 131.6,108 153.2,83.2 137.2,16.8 
		114.8,42.4 	"/>
	<polyline style="fill:#CCCAB6;" points="75.6,126.4 75.6,126.4 75.6,126.4 76.4,126.4 76.4,125.6 94.8,98.4 70.8,34.4 51.6,62.4 	
		"/>
	<polyline style="fill:#CCCAB6;" points="322,28 351.6,12 342,80 313.2,95.2 313.2,95.2 312.4,95.2 312.4,95.2 312.4,95.2 	"/>
	<polyline style="fill:#CCCAB6;" points="388.4,42.4 419.6,30.4 402.8,96 371.6,108 371.6,108.8 371.6,108.8 371.6,108.8 371.6,108 
			"/>
	<polyline style="fill:#CCCAB6;" points="451.6,62.4 483.6,53.6 459.6,117.6 427.6,126.4 427.6,126.4 427.6,126.4 426.8,126.4 
		426.8,125.6 	"/>
	<polygon style="fill:#CCCAB6;" points="276.4,323.2 311.6,60 322,60.8 287.6,323.2 	"/>
	<polygon style="fill:#CCCAB6;" points="310.8,323.2 374.8,73.6 384.4,75.2 322,323.2 	"/>
	<polygon style="fill:#CCCAB6;" points="346,323.2 434,91.2 443.6,94.4 357.2,323.2 	"/>
</g>
<g>
</g>
<g>
</g>
<g>
</g>
<g>
</g>
<g>
</g>
<g>
</g>
<g>
</g>
<g>
</g>
<g>
</g>
<g>
</g>
<g>
</g>
<g>
</g>
<g>
</g>
<g>
</g>
<g>
</g>
</svg>
