<?xml version="1.0" encoding="iso-8859-1"?>
<!-- Generator: Adobe Illustrator 19.0.0, SVG Export Plug-In . SVG Version: 6.00 Build 0)  -->
<svg version="1.1" id="Layer_1" xmlns="http://www.w3.org/2000/svg" xmlns:xlink="http://www.w3.org/1999/xlink" x="0px" y="0px"
	 viewBox="0 0 460 460" style="enable-background:new 0 0 460 460;" xml:space="preserve">
<circle style="fill:#EDEEF0;" cx="230" cy="230" r="230"/>
<path style="fill:#C8523B;" d="M383.325,373.009l-11.229-16.551c-3.242,2.199-6.122,4.153-8.808,5.974
	c-4.038-6.747-7.755-13.604-11.153-20.558l9.432-4.242l-8.207-18.238l-9.332,4.197c-2.803-7.032-5.289-14.149-7.449-21.338
	l9.886-2.552l-5.002-19.365l-9.874,2.549c-1.566-7.244-2.81-14.547-3.728-21.901l10.196-0.859l-1.682-19.93l-10.208,0.86
	c-0.162-3.672-0.245-7.354-0.245-11.044c0-3.696,0.083-7.383,0.245-11.061c3.123,0.263,6.463,0.544,10.211,0.859l1.676-19.93
	c-3.741-0.314-7.076-0.595-10.193-0.857c0.918-7.354,2.162-14.659,3.728-21.903c3.022,0.78,6.253,1.613,9.878,2.548l4.994-19.367
	c-3.627-0.936-6.859-1.769-9.883-2.549c2.161-7.19,4.646-14.307,7.449-21.34l9.332,4.198l8.205-18.24l-9.43-4.242
	c3.397-6.953,7.115-13.809,11.152-20.555l8.811,5.972l11.225-16.553l-9.169-6.216c4.278-6.137,8.823-12.171,13.647-18.088
	c-4.85-4.576-9.897-8.945-15.13-13.09c-5.337,6.521-10.361,13.176-15.078,19.952l-11.077-7.509L335.29,78.593l11.41,7.734
	c-4.667,7.729-8.935,15.599-12.818,23.587l-12.871-5.79l-8.209,18.238l12.966,5.833c-3.251,8.082-6.124,16.268-8.586,24.548
	c-4.12-1.064-8.547-2.208-13.772-3.558l-5.004,19.363c5.235,1.353,9.668,2.499,13.795,3.564c-1.826,8.336-3.256,16.75-4.286,25.227
	c-3.031-0.256-6.22-0.525-9.76-0.824l-4.405-0.372l-1.682,19.93l4.405,0.371c3.538,0.299,6.725,0.568,9.755,0.824
	c-0.199,4.236-0.305,8.484-0.305,12.743c0,4.252,0.106,8.494,0.305,12.723l-14.159,1.193l1.68,19.93l14.166-1.193
	c1.031,8.476,2.46,16.889,4.286,25.225l-13.793,3.561l5,19.365l13.774-3.556c2.462,8.28,5.334,16.464,8.584,24.545l-12.964,5.83
	l8.205,18.24l12.873-5.79c3.884,7.99,8.152,15.861,12.819,23.59l-11.409,7.731l11.223,16.555l11.079-7.508
	c4.717,6.775,9.741,13.431,15.077,19.951c5.234-4.145,10.28-8.513,15.13-13.089c-4.824-5.916-9.368-11.95-13.646-18.086
	C376.942,377.338,379.938,375.307,383.325,373.009z"/>
<path style="fill:#C8523B;" d="M154.076,230.012c0-4.259-0.106-8.506-0.304-12.743c3.073-0.259,6.311-0.533,9.911-0.836l4.249-0.358
	l-1.682-19.93l-4.25,0.359c-3.602,0.304-6.84,0.577-9.915,0.836c-1.031-8.477-2.46-16.891-4.286-25.227
	c4.127-1.065,8.56-2.211,13.795-3.564l-5.005-19.363c-5.225,1.35-9.651,2.494-13.771,3.558c-2.462-8.281-5.335-16.466-8.586-24.548
	l12.966-5.833l-8.209-18.238l-12.871,5.79c-3.883-7.989-8.151-15.858-12.818-23.587l11.409-7.734L113.484,62.04l-11.077,7.509
	c-4.717-6.776-9.741-13.432-15.078-19.952c-5.234,4.145-10.28,8.514-15.13,13.09c4.824,5.917,9.369,11.951,13.647,18.088
	l-9.169,6.215l11.225,16.553l8.81-5.972c4.037,6.746,7.755,13.602,11.152,20.555l-9.43,4.242l8.205,18.24l9.332-4.198
	c2.804,7.033,5.289,14.15,7.449,21.34c-3.024,0.78-6.256,1.613-9.883,2.549l4.994,19.367c3.625-0.935,6.856-1.768,9.878-2.548
	c1.566,7.244,2.811,14.549,3.728,21.903c-3.117,0.262-6.452,0.543-10.193,0.857l1.676,19.93c3.748-0.315,7.088-0.596,10.211-0.859
	c0.162,3.678,0.245,7.365,0.245,11.061c0,3.69-0.083,7.372-0.245,11.044l-10.207-0.86l-1.682,19.93l10.196,0.859
	c-0.918,7.354-2.162,14.657-3.728,21.901l-9.874-2.549l-5.002,19.365l9.886,2.552c-2.16,7.189-4.646,14.306-7.449,21.338
	l-9.331-4.196l-8.208,18.238l9.432,4.242c-3.398,6.954-7.115,13.811-11.153,20.558c-2.685-1.82-5.567-3.774-8.809-5.974
	l-11.228,16.551c3.387,2.297,6.384,4.33,9.171,6.22c-4.278,6.136-8.822,12.17-13.646,18.086c4.85,4.576,9.897,8.945,15.13,13.089
	c5.336-6.52,10.36-13.176,15.077-19.951l11.08,7.508l11.223-16.555l-11.409-7.732c4.667-7.729,8.936-15.6,12.819-23.59l12.873,5.79
	l8.205-18.24l-12.964-5.831c3.25-8.081,6.123-16.265,8.584-24.544l13.774,3.555l5.001-19.365l-13.794-3.561
	c1.826-8.335,3.256-16.749,4.286-25.225l14.166,1.193l1.679-19.93l-14.158-1.193C153.97,238.505,154.076,234.264,154.076,230.012z"
	/>
<path style="opacity:0.3;fill:#5B5B5F;enable-background:new    ;" d="M230,0v460c127.026,0,230-102.975,230-230S357.026,0,230,0z"
	/>
<g>
</g>
<g>
</g>
<g>
</g>
<g>
</g>
<g>
</g>
<g>
</g>
<g>
</g>
<g>
</g>
<g>
</g>
<g>
</g>
<g>
</g>
<g>
</g>
<g>
</g>
<g>
</g>
<g>
</g>
</svg>
