<?xml version="1.0" encoding="iso-8859-1"?>
<!-- Generator: Adobe Illustrator 19.0.0, SVG Export Plug-In . SVG Version: 6.00 Build 0)  -->
<svg version="1.1" id="Layer_1" xmlns="http://www.w3.org/2000/svg" xmlns:xlink="http://www.w3.org/1999/xlink" x="0px" y="0px"
	 viewBox="0 0 460.001 460.001" style="enable-background:new 0 0 460.001 460.001;" xml:space="preserve">
<circle style="fill:#E28138;" cx="230.001" cy="230" r="230"/>
<path style="fill:#FFFFFF;" d="M460,220h-88.349c1.395-53.255,14.018-103.013,34.729-137.602
	c-4.448-5.31-9.124-10.422-14.027-15.308c-24.345,37.871-39.208,93.605-40.701,152.91H240.001V0.229
	c-3.317-0.142-6.648-0.229-10-0.229s-6.683,0.087-10,0.229V220H108.35c-1.493-59.304-16.356-115.039-40.701-152.91
	c-4.903,4.886-9.579,9.999-14.027,15.308C74.332,116.987,86.954,166.745,88.35,220H0.001v20h88.344
	c-1.42,53.47-14.038,102.999-34.799,137.513c4.442,5.308,9.11,10.418,14.006,15.303c24.413-37.847,39.272-93.293,40.793-152.815
	h111.656v219.771c3.317,0.142,6.648,0.229,10,0.229s6.683-0.087,10-0.229V240h111.656c1.521,59.522,16.38,114.968,40.793,152.815
	c4.896-4.885,9.564-9.995,14.006-15.303C385.695,342.999,373.076,293.47,371.656,240H460V220z"/>
<path style="opacity:0.3;fill:#5B5B5F;enable-background:new    ;" d="M230.001,0v460c127.026,0,230-102.975,230-230
	S357.026,0,230.001,0z"/>
<g>
</g>
<g>
</g>
<g>
</g>
<g>
</g>
<g>
</g>
<g>
</g>
<g>
</g>
<g>
</g>
<g>
</g>
<g>
</g>
<g>
</g>
<g>
</g>
<g>
</g>
<g>
</g>
<g>
</g>
</svg>
