<?xml version="1.0" encoding="iso-8859-1"?>
<!-- Generator: Adobe Illustrator 19.0.0, SVG Export Plug-In . SVG Version: 6.00 Build 0)  -->
<svg version="1.1" id="Layer_1" xmlns="http://www.w3.org/2000/svg" xmlns:xlink="http://www.w3.org/1999/xlink" x="0px" y="0px"
	 viewBox="0 0 512 512" style="enable-background:new 0 0 512 512;" xml:space="preserve">
<circle style="fill:#515262;" cx="256" cy="256" r="256"/>
<circle style="fill:#EFF2FA;" cx="256" cy="256" r="105.931"/>
<circle style="fill:#FFFFFF;" cx="286.897" cy="207.448" r="30.897"/>
<path style="fill:#515262;" d="M280.66,245.894c6.554-6.414,10.65-15.328,10.65-25.204c0-19.474-15.837-35.31-35.31-35.31
	s-35.31,15.837-35.31,35.31c0,9.876,4.096,18.79,10.65,25.204c-11.743,7.94-19.478,21.379-19.478,36.589
	c0,24.337,19.801,44.138,44.138,44.138s44.138-19.801,44.138-44.138C300.138,267.273,292.403,253.834,280.66,245.894z
	 M238.345,220.69c0-9.732,7.923-17.655,17.655-17.655s17.655,7.923,17.655,17.655s-7.923,17.655-17.655,17.655
	S238.345,230.422,238.345,220.69z M256,308.966c-14.603,0-26.483-11.88-26.483-26.483C229.517,267.88,241.397,256,256,256
	s26.483,11.88,26.483,26.483C282.483,297.086,270.603,308.966,256,308.966z"/>
<path style="fill:#464655;" d="M361.931,476.69c-141.385,0-256-114.615-256-256c0-93.099,49.707-174.574,124.019-219.378
	C100.801,14.365,0,123.409,0,256c0,141.385,114.615,256,256,256c48.286,0,93.439-13.385,131.981-36.622
	C379.415,476.244,370.726,476.69,361.931,476.69z"/>
<path style="fill:#707487;" d="M264.327,186.477c-4.182,4.499-6.976,10.228-7.886,16.602c9.525,0.239,17.215,8.028,17.215,17.61
	c0,4.577-1.796,8.716-4.665,11.857c4.928,3.523,10.904,5.64,17.399,5.747c3.038-5.201,4.921-11.154,4.921-17.603
	C291.31,204.097,279.774,190.243,264.327,186.477z"/>
<g>
</g>
<g>
</g>
<g>
</g>
<g>
</g>
<g>
</g>
<g>
</g>
<g>
</g>
<g>
</g>
<g>
</g>
<g>
</g>
<g>
</g>
<g>
</g>
<g>
</g>
<g>
</g>
<g>
</g>
</svg>
