<?xml version="1.0" encoding="iso-8859-1"?>
<!-- Generator: Adobe Illustrator 19.0.0, SVG Export Plug-In . SVG Version: 6.00 Build 0)  -->
<svg version="1.1" id="Capa_1" xmlns="http://www.w3.org/2000/svg" xmlns:xlink="http://www.w3.org/1999/xlink" x="0px" y="0px"
	 viewBox="0 0 56 56" style="enable-background:new 0 0 56 56;" xml:space="preserve">
<circle style="fill:#38454F;" cx="28" cy="28" r="28"/>
<circle style="fill:#546A79;" cx="27.583" cy="40.583" r="4.583"/>
<circle style="fill:#546A79;" cx="41.333" cy="42.417" r="4.583"/>
<circle style="fill:#546A79;" cx="35.833" cy="29.583" r="4.583"/>
<path style="fill:#546A79;" d="M21.999,6.252c-0.422,0-0.815-0.27-0.952-0.693C20.878,5.033,21.167,4.47,21.692,4.3
	C24.366,3.438,27.162,3,30,3c0.552,0,1,0.448,1,1s-0.448,1-1,1c-2.63,0-5.218,0.405-7.694,1.204
	C22.204,6.236,22.101,6.252,21.999,6.252z"/>
<path style="fill:#546A79;" d="M9.999,14.377c-0.226,0-0.452-0.076-0.639-0.231c-0.424-0.354-0.482-0.984-0.129-1.409
	c2.535-3.047,5.766-5.541,9.346-7.213c0.5-0.234,1.095-0.018,1.329,0.483c0.233,0.5,0.017,1.095-0.483,1.329
	c-3.314,1.547-6.307,3.857-8.654,6.68C10.571,14.254,10.286,14.377,9.999,14.377z"/>
<path style="fill:#546A79;" d="M6.923,19c-0.155,0-0.313-0.036-0.46-0.113c-0.49-0.255-0.681-0.859-0.426-1.349
	c0.183-0.351,0.373-0.698,0.57-1.039c0.275-0.478,0.887-0.643,1.366-0.365c0.478,0.276,0.642,0.888,0.365,1.366
	c-0.183,0.316-0.358,0.636-0.527,0.961C7.633,18.804,7.284,19,6.923,19z"/>
<path style="fill:#546A79;" d="M4,31c-0.552,0-1-0.448-1-1c0-2.104,0.243-4.201,0.721-6.229c0.126-0.538,0.665-0.875,1.203-0.744
	c0.538,0.126,0.871,0.665,0.744,1.203C5.225,26.108,5,28.05,5,30C5,30.552,4.552,31,4,31z"/>
<g>
</g>
<g>
</g>
<g>
</g>
<g>
</g>
<g>
</g>
<g>
</g>
<g>
</g>
<g>
</g>
<g>
</g>
<g>
</g>
<g>
</g>
<g>
</g>
<g>
</g>
<g>
</g>
<g>
</g>
</svg>
