<?xml version="1.0" encoding="iso-8859-1"?>
<!-- Generator: Adobe Illustrator 19.0.0, SVG Export Plug-In . SVG Version: 6.00 Build 0)  -->
<svg version="1.1" id="Layer_1" xmlns="http://www.w3.org/2000/svg" xmlns:xlink="http://www.w3.org/1999/xlink" x="0px" y="0px"
	 viewBox="0 0 505 505" style="enable-background:new 0 0 505 505;" xml:space="preserve">
<circle style="fill:#84DBFF;" cx="252.5" cy="252.5" r="252.5"/>
<path style="fill:#FFFFFF;" d="M91.2,140.1v237.4c0,0.8,0.6,1.4,1.4,1.4h319.8c0.8,0,1.4-0.6,1.4-1.4V140.1H91.2z"/>
<path style="fill:#FF7058;" d="M413.8,176.4v-41.7c0-4.7-3.8-8.5-8.5-8.5H99.7c-4.7,0-8.5,3.8-8.5,8.5v41.7H413.8z"/>
<g>
	<circle style="fill:#FFFFFF;" cx="385.5" cy="151.3" r="10.9"/>
	<circle style="fill:#FFFFFF;" cx="353.9" cy="151.3" r="10.9"/>
	<circle style="fill:#FFFFFF;" cx="322.2" cy="151.3" r="10.9"/>
</g>
<path style="fill:#4CDBC4;" d="M185.8,252.5h-44c-1.3,0-2.4-1.1-2.4-2.4v-44c0-1.3,1.1-2.4,2.4-2.4h44c1.3,0,2.4,1.1,2.4,2.4v44
	C188.2,251.4,187.2,252.5,185.8,252.5z"/>
<path style="fill:#54C0EB;" d="M185.8,339.5h-44c-1.3,0-2.4-1.1-2.4-2.4v-44c0-1.3,1.1-2.4,2.4-2.4h44c1.3,0,2.4,1.1,2.4,2.4v44
	C188.2,338.4,187.2,339.5,185.8,339.5z"/>
<g>
	<rect x="215" y="207.9" style="fill:#E6E9EE;" width="143" height="12"/>
	<rect x="215" y="236.3" style="fill:#E6E9EE;" width="108.2" height="12"/>
	<rect x="215" y="294.9" style="fill:#E6E9EE;" width="143" height="12"/>
	<rect x="215" y="323.4" style="fill:#E6E9EE;" width="108.2" height="12"/>
</g>
<g>
</g>
<g>
</g>
<g>
</g>
<g>
</g>
<g>
</g>
<g>
</g>
<g>
</g>
<g>
</g>
<g>
</g>
<g>
</g>
<g>
</g>
<g>
</g>
<g>
</g>
<g>
</g>
<g>
</g>
</svg>
