<?xml version="1.0" encoding="iso-8859-1"?>
<!-- Generator: Adobe Illustrator 19.0.0, SVG Export Plug-In . SVG Version: 6.00 Build 0)  -->
<svg version="1.1" id="Layer_1" xmlns="http://www.w3.org/2000/svg" xmlns:xlink="http://www.w3.org/1999/xlink" x="0px" y="0px"
	 viewBox="0 0 496.2 496.2" style="enable-background:new 0 0 496.2 496.2;" xml:space="preserve">
<path style="fill:#32BEA6;" d="M0,248.1C0,111.1,111.1,0,248.1,0s248.1,111.1,248.1,248.1S385.1,496.2,248.1,496.2S0,385.1,0,248.1z
	"/>
<g>
	<path style="fill:#4C4C4C;" d="M144.5,321.9H128c-1.3,0-2.4,1.1-2.4,2.4v62.4c0,1.3,1.1,2.4,2.4,2.4h16.5c1.3,0,2.4-1.1,2.4-2.4
		v-62.4C146.9,323,145.9,321.9,144.5,321.9z"/>
	<rect x="127.8" y="308.7" style="fill:#4C4C4C;" width="16.5" height="24.5"/>
	<path style="fill:#4C4C4C;" d="M145.3,383.3h-18.1c-1.4,0-2.6,1.2-2.6,2.6v3.1c0,1.4,1.2,2.6,2.6,2.6h18.1c1.4,0,2.6-1.2,2.6-2.6
		v-3.1C147.9,384.5,146.8,383.3,145.3,383.3z"/>
</g>
<rect x="247.9" y="133.2" style="fill:#EA4949;" width="126.4" height="183.4"/>
<g>
	<rect x="246.2" y="225.5" style="fill:#EFE020;" width="128" height="91.1"/>
	<rect x="144.3" y="133.2" style="fill:#EFE020;" width="103.7" height="92.8"/>
</g>
<rect x="144.3" y="225.5" style="fill:#EA4949;" width="103.7" height="91.1"/>
<rect x="126.7" y="133.2" style="fill:#E5D11A;" width="19.1" height="183.4"/>
<rect x="126.7" y="225.5" style="fill:#E21B1B;" width="19.1" height="91.1"/>
<g>
</g>
<g>
</g>
<g>
</g>
<g>
</g>
<g>
</g>
<g>
</g>
<g>
</g>
<g>
</g>
<g>
</g>
<g>
</g>
<g>
</g>
<g>
</g>
<g>
</g>
<g>
</g>
<g>
</g>
</svg>
