<?xml version="1.0" encoding="iso-8859-1"?>
<!-- Generator: Adobe Illustrator 19.0.0, SVG Export Plug-In . SVG Version: 6.00 Build 0)  -->
<svg version="1.1" id="Layer_1" xmlns="http://www.w3.org/2000/svg" xmlns:xlink="http://www.w3.org/1999/xlink" x="0px" y="0px"
	 viewBox="0 0 511.992 511.992" style="enable-background:new 0 0 511.992 511.992;" xml:space="preserve">
<g>
	<g>
		<path style="fill:#996459;" d="M284.826,9.539c-0.008,0-0.008,0-0.008,0c-17.234-12.719-40.406-12.719-57.641,0
			c-77.133,57-123.18,149.133-123.18,246.453s46.047,189.453,123.187,246.453c8.617,6.359,18.711,9.547,28.812,9.547
			c10.101,0,20.203-3.188,28.828-9.547c77.125-57,123.172-149.133,123.172-246.453S361.951,66.539,284.826,9.539z"/>
	</g>
	<g>
		<path style="fill:#7E5C62;" d="M255.779,0.017c-10.028,0.045-20.047,3.208-28.602,9.522c-77.133,57-123.18,149.133-123.18,246.453
			s46.047,189.453,123.187,246.453c8.555,6.313,18.565,9.484,28.594,9.53V0.017H255.779z"/>
	</g>
	<g>
		<g>
			<path style="fill:#E6BE94;" d="M255.998,351.992c-4.422,0-8-3.578-8-8v-176c0-4.422,3.578-8,8-8c4.422,0,8,3.578,8,8v176
				C263.998,348.414,260.42,351.992,255.998,351.992z"/>
		</g>
	</g>
	<g>
		<g>
			<path style="fill:#FFEBB7;" d="M279.998,263.992h-48c-4.422,0-8-3.578-8-8s3.578-8,8-8h48c4.422,0,8,3.578,8,8
				S284.42,263.992,279.998,263.992z"/>
		</g>
	</g>
	<g>
		<g>
			<path style="fill:#FFEBB7;" d="M279.998,231.992h-48c-4.422,0-8-3.578-8-8s3.578-8,8-8h48c4.422,0,8,3.578,8,8
				S284.42,231.992,279.998,231.992z"/>
		</g>
	</g>
	<g>
		<g>
			<path style="fill:#FFEBB7;" d="M279.998,295.992h-48c-4.422,0-8-3.578-8-8s3.578-8,8-8h48c4.422,0,8,3.578,8,8
				S284.42,295.992,279.998,295.992z"/>
		</g>
	</g>
	<g>
		<g>
			<path style="fill:#FFEBB7;" d="M279.998,199.992h-48c-4.422,0-8-3.578-8-8s3.578-8,8-8h48c4.422,0,8,3.578,8,8
				S284.42,199.992,279.998,199.992z"/>
		</g>
	</g>
	<g>
		<g>
			<path style="fill:#FFEBB7;" d="M279.998,327.992h-48c-4.422,0-8-3.578-8-8s3.578-8,8-8h48c4.422,0,8,3.578,8,8
				S284.42,327.992,279.998,327.992z"/>
		</g>
	</g>
	<g>
		<path style="fill:#FFEBB7;" d="M131.858,383.992h248.281c-5,11-10.635,21.679-16.878,32H148.738
			C142.494,405.671,136.857,394.993,131.858,383.992z"/>
	</g>
	<g>
		<path style="fill:#FFEBB7;" d="M131.858,127.992h248.281c-5-11-10.635-21.679-16.878-32H148.738
			C142.494,106.313,136.857,116.992,131.858,127.992z"/>
	</g>
	<g>
		<path style="fill:#E6BE94;" d="M255.779,383.992H131.858c5,11,10.636,21.679,16.88,32h107.041L255.779,383.992L255.779,383.992z"
			/>
	</g>
	<g>
		<path style="fill:#E6BE94;" d="M255.779,95.992H148.738c-6.244,10.321-11.88,21-16.88,32h123.921L255.779,95.992L255.779,95.992z"
			/>
	</g>
</g>
<g>
</g>
<g>
</g>
<g>
</g>
<g>
</g>
<g>
</g>
<g>
</g>
<g>
</g>
<g>
</g>
<g>
</g>
<g>
</g>
<g>
</g>
<g>
</g>
<g>
</g>
<g>
</g>
<g>
</g>
</svg>
