<?xml version="1.0" encoding="iso-8859-1"?>
<!-- Generator: Adobe Illustrator 19.0.0, SVG Export Plug-In . SVG Version: 6.00 Build 0)  -->
<svg version="1.1" id="Layer_1" xmlns="http://www.w3.org/2000/svg" xmlns:xlink="http://www.w3.org/1999/xlink" x="0px" y="0px"
	 viewBox="0 0 512.001 512.001" style="enable-background:new 0 0 512.001 512.001;" xml:space="preserve">
<path style="fill:#F6F6F6;" d="M325.184,18.789C446.617,55.087,522.317,179.01,496.378,305.72
	c-27.424,133.963-158.065,220.288-291.794,192.816C70.855,471.062-15.321,340.193,12.104,206.23
	C37.684,81.279,153.062-2.213,276.985,9.411C276.985,9.411,303.426,11.157,325.184,18.789z"/>
<g>
	<path style="fill:#CACACA;" d="M442.194,95.185c17.544,43.582,22.918,92.643,12.786,142.128
		C427.555,371.276,296.914,457.603,163.186,430.13c-56.071-11.519-103.773-41.221-138.256-81.701
		c29.961,74.372,95.351,132.787,179.654,150.106c133.729,27.472,264.37-58.853,291.794-192.816
		C512.298,227.952,489.922,151.24,442.194,95.185z"/>
	<path style="fill:#CACACA;" d="M260.91,339.057c12.688,19.269,7.38,45.193-11.854,57.903c-19.235,12.71-45.113,7.394-57.801-11.876
		L260.91,339.057z"/>
</g>
<g>
	<path style="fill:#F46178;" d="M122.834,430.298c7.703,11.698,8.774,25.849,4.121,38.007"/>
	<path style="fill:#F46178;" d="M498.77,219.49c-11.467-1.598-22.216-7.943-29.093-18.385"/>
</g>
<g>
	<path style="fill:#CACACA;" d="M401.256,246.317c12.688,19.268,7.38,45.193-11.854,57.903
		c-19.235,12.709-45.113,7.394-57.802-11.876L401.256,246.317z"/>
	<path style="fill:#CACACA;" d="M160.818,187.055c12.688,19.268,7.38,45.192-11.854,57.902
		c-19.235,12.71-45.113,7.395-57.801-11.874L160.818,187.055z"/>
	<path style="fill:#CACACA;" d="M301.164,94.314c12.689,19.268,7.381,45.192-11.853,57.902
		c-19.235,12.71-45.113,7.395-57.801-11.874L301.164,94.314z"/>
	<path style="fill:#CACACA;" d="M278.241,218.821c12.688,19.268,7.381,45.193-11.853,57.903
		c-19.235,12.709-45.113,7.394-57.801-11.876L278.241,218.821z"/>
	<path style="fill:#CACACA;" d="M140.165,310.06c12.688,19.268,7.38,45.193-11.853,57.903c-19.236,12.71-45.114,7.394-57.802-11.876
		L140.165,310.06z"/>
	<path style="fill:#CACACA;" d="M418.587,126.08c12.688,19.268,7.381,45.192-11.853,57.902
		c-19.235,12.71-45.113,7.395-57.801-11.874L418.587,126.08z"/>
</g>
<g>
	<path style="fill:#3C3A41;" d="M508.792,218.224c-0.009-0.054-0.017-0.11-0.026-0.164c-4.92-32.938-16.281-64.864-33.791-94.003
		c-32.937-54.808-84.653-95.029-145.62-113.254c-4.409-1.322-9.055,1.187-10.373,5.599c-1.318,4.41,1.188,9.054,5.599,10.372
		c85.372,25.519,147.069,96.887,164.91,180.22c-4.396-2.566-8.206-6.124-11.069-10.474c-2.532-3.844-7.7-4.909-11.546-2.377
		c-3.844,2.53-4.909,7.7-2.377,11.546c6.679,10.142,16.774,17.431,28.321,20.665c3.283,25.364,2.524,51.562-2.826,77.695
		c-2.118,10.349-4.894,20.452-8.27,30.277c-9.725-1.119-18.433-6.412-23.956-14.798c-2.532-3.844-7.7-4.91-11.546-2.377
		c-3.844,2.532-4.909,7.7-2.377,11.546c7.362,11.18,18.94,18.828,31.799,21.486c-18.186,42.791-48.471,79.336-88.112,105.53
		c-39.593,26.164-84.986,39.667-131.353,39.603c2.659-12.911,0.207-26.619-7.179-37.835c-2.532-3.845-7.703-4.911-11.546-2.377
		c-3.844,2.532-4.909,7.701-2.377,11.546c5.462,8.295,6.881,18.631,4.095,28.031c-10.375-0.757-20.769-2.179-31.129-4.307
		c-25.025-5.141-48.324-14.066-69.449-26.035c2.955-13.192,0.508-27.194-7.017-38.622c-2.532-3.846-7.703-4.912-11.546-2.378
		c-3.844,2.53-4.909,7.7-2.378,11.544c3.911,5.941,5.762,12.925,5.465,19.886C45.025,402.219,2.013,305.795,22.055,207.902
		C46.583,88.09,156.611,6.321,277.992,17.709c4.575,0.423,8.646-2.938,9.076-7.52c0.43-4.583-2.937-8.646-7.52-9.076
		c-62.278-5.844-124.443,11.483-175.043,48.783C53.53,87.473,18.448,142.4,5.724,204.559c-13.71,66.967-0.567,135.276,37.01,192.341
		c37.579,57.071,95.097,96.064,161.956,109.8c17.271,3.547,34.625,5.301,51.858,5.301c49.482-0.001,97.918-14.458,140.175-42.381
		c56.969-37.645,95.894-95.259,109.604-162.229C512.406,277.7,513.154,247.561,508.792,218.224z"/>
	<path style="fill:#3C3A41;" d="M246.246,390.007c-7.439,4.915-16.341,6.638-25.073,4.845c-8.739-1.791-16.26-6.889-21.174-14.352
		c-2.53-3.844-7.701-4.909-11.544-2.377c-3.844,2.53-4.909,7.7-2.378,11.546c7.366,11.184,18.64,18.826,31.747,21.513
		c3.378,0.693,6.772,1.036,10.144,1.036c9.695,0,19.188-2.833,27.466-8.304c23.032-15.22,29.411-46.371,14.219-69.441
		c-2.533-3.844-7.701-4.91-11.546-2.377c-3.844,2.53-4.909,7.7-2.377,11.546C265.877,359.047,261.622,379.847,246.246,390.007z"/>
	<path style="fill:#3C3A41;" d="M328.803,285.385c-3.844,2.53-4.909,7.7-2.378,11.544c7.364,11.184,18.638,18.825,31.743,21.513
		c3.38,0.693,6.776,1.036,10.147,1.036c9.695,0,19.187-2.833,27.466-8.304c23.033-15.22,29.411-46.372,14.219-69.441
		c-2.532-3.844-7.7-4.91-11.546-2.377c-3.844,2.532-4.909,7.7-2.377,11.546c10.144,15.405,5.888,36.205-9.487,46.365
		c-7.439,4.915-16.343,6.639-25.075,4.845c-8.739-1.793-16.258-6.889-21.17-14.349C337.815,283.915,332.646,282.85,328.803,285.385z
		"/>
	<path style="fill:#3C3A41;" d="M317.424,412.266c-2.533-3.845-7.701-4.91-11.546-2.377c-3.844,2.53-4.909,7.7-2.378,11.546
		c7.365,11.184,18.64,18.825,31.747,21.513c3.378,0.693,6.773,1.036,10.144,1.036c9.696,0,19.188-2.833,27.467-8.305
		c23.031-15.22,29.409-46.371,14.219-69.44c-2.533-3.845-7.701-4.91-11.546-2.377c-3.844,2.53-4.909,7.7-2.378,11.546
		c10.144,15.404,5.888,36.204-9.487,46.365c-7.439,4.915-16.343,6.64-25.073,4.845C329.857,424.826,322.337,419.729,317.424,412.266
		z"/>
	<path style="fill:#3C3A41;" d="M169.564,182.471c-2.533-3.845-7.7-4.91-11.546-2.377c-3.844,2.532-4.909,7.7-2.377,11.546
		c10.144,15.404,5.888,36.203-9.488,46.364c-7.439,4.915-16.341,6.637-25.073,4.846c-8.739-1.793-16.259-6.889-21.173-14.352
		c-2.53-3.845-7.701-4.91-11.544-2.377c-3.844,2.53-4.909,7.7-2.378,11.546c7.366,11.184,18.64,18.825,31.747,21.513
		c3.378,0.692,6.773,1.035,10.143,1.035c9.697,0,19.188-2.833,27.467-8.304C178.376,236.691,184.755,205.541,169.564,182.471z"/>
	<path style="fill:#3C3A41;" d="M286.5,145.263c-7.439,4.916-16.348,6.639-25.074,4.846c-8.739-1.791-16.258-6.888-21.171-14.35
		c-2.533-3.844-7.701-4.91-11.546-2.377c-3.844,2.53-4.909,7.7-2.378,11.546c7.365,11.183,18.638,18.824,31.744,21.512
		c3.38,0.692,6.775,1.036,10.145,1.036c9.696,0,19.188-2.833,27.467-8.305c23.032-15.22,29.412-46.371,14.22-69.44
		c-2.532-3.844-7.699-4.91-11.546-2.377c-3.844,2.532-4.909,7.7-2.377,11.546C306.133,114.302,301.876,135.102,286.5,145.263z"/>
	<path style="fill:#3C3A41;" d="M286.987,214.237c-2.532-3.844-7.701-4.909-11.546-2.377c-3.844,2.532-4.909,7.701-2.377,11.546
		c10.145,15.404,5.889,36.203-9.488,46.365c-7.438,4.917-16.339,6.637-25.073,4.845c-8.739-1.793-16.259-6.889-21.173-14.352
		c-2.532-3.844-7.7-4.909-11.544-2.377c-3.844,2.53-4.909,7.7-2.378,11.546c7.366,11.184,18.64,18.825,31.747,21.513
		c3.378,0.692,6.773,1.036,10.144,1.036c9.696-0.001,19.187-2.834,27.466-8.305C295.801,268.457,302.18,237.307,286.987,214.237z"/>
	<path style="fill:#3C3A41;" d="M125.501,361.01c-7.438,4.915-16.341,6.64-25.071,4.845c-8.741-1.791-16.26-6.888-21.174-14.352
		c-2.532-3.845-7.701-4.91-11.546-2.377c-3.844,2.53-4.909,7.7-2.377,11.546c7.365,11.185,18.64,18.826,31.747,21.513
		c3.378,0.693,6.772,1.036,10.143,1.036c9.696,0,19.188-2.834,27.466-8.305c23.033-15.22,29.411-46.372,14.219-69.441
		c-2.532-3.844-7.699-4.909-11.546-2.377c-3.844,2.532-4.909,7.7-2.377,11.546C145.132,330.05,140.877,350.849,125.501,361.01z"/>
	<path style="fill:#3C3A41;" d="M403.923,177.029c-7.439,4.915-16.341,6.637-25.073,4.846c-8.739-1.793-16.259-6.889-21.173-14.352
		c-2.532-3.844-7.701-4.909-11.544-2.377c-3.844,2.53-4.909,7.7-2.378,11.546c7.366,11.184,18.64,18.825,31.747,21.513
		c3.378,0.692,6.773,1.035,10.143,1.035c9.697,0,19.188-2.833,27.467-8.304c23.033-15.22,29.412-46.371,14.219-69.44
		c-2.533-3.844-7.7-4.91-11.546-2.377c-3.844,2.532-4.909,7.7-2.377,11.546C423.556,146.069,419.3,166.868,403.923,177.029z"/>
</g>
<g>
</g>
<g>
</g>
<g>
</g>
<g>
</g>
<g>
</g>
<g>
</g>
<g>
</g>
<g>
</g>
<g>
</g>
<g>
</g>
<g>
</g>
<g>
</g>
<g>
</g>
<g>
</g>
<g>
</g>
</svg>
