<?xml version="1.0" encoding="iso-8859-1"?>
<!-- Generator: Adobe Illustrator 18.0.0, SVG Export Plug-In . SVG Version: 6.00 Build 0)  -->
<!DOCTYPE svg PUBLIC "-//W3C//DTD SVG 1.1//EN" "http://www.w3.org/Graphics/SVG/1.1/DTD/svg11.dtd">
<svg version="1.1" id="Capa_1" xmlns="http://www.w3.org/2000/svg" xmlns:xlink="http://www.w3.org/1999/xlink" x="0px" y="0px"
	 viewBox="0 0 297 297" style="enable-background:new 0 0 297 297;" xml:space="preserve">
<g>
	<g>
		<g>
			<path style="fill:#8B8F91;" d="M195.086,210.88c-8.035-24.555-21.534-47.331-39.79-66.244
				c-13.003,2.859-26.201,4.275-39.35,4.275c-39.856,0-79.246-12.889-111.337-37.127c-5.632,22.144-6.141,45.451-1.302,67.992
				c0.005,0.003,0.01,0.006,0.016,0.01c43.791,29.833,94.872,36.42,130.011,36.694C162.106,216.694,185.189,212.852,195.086,210.88z
				"/>
		</g>
		<g>
			<path style="fill:#D0D5D9;" d="M243.024,33.941c-20.343-16.82-44.398-27.529-69.488-31.813
				C168.327,6.03,98.022,60.004,87.44,134.562c22.503,3.739,45.788,3.063,68.372-2.349
				C167.684,94.977,199.619,58.974,243.024,33.941z"/>
		</g>
		<g>
			<path style="fill:#ABAFB2;" d="M210.679,72.149c5.854,5.495,19.448,19.262,33.388,40.528
				c14.753,22.504,32.303,57.514,37.454,101.884c24.734-49.888,20.262-111.686-16.593-158.238
				c-3.926-4.958-8.106-9.597-12.504-13.916C236.86,51.04,222.804,61.112,210.679,72.149z"/>
		</g>
		<g>
			<path style="fill:#ABAFB2;" d="M234.268,119.612c-13.638-20.885-27.163-34.372-32.23-39.105
				c-17.463,17.996-29.909,38.057-35.701,58.335c35.569,38.3,53.381,90.625,48.564,142.509c8.961-4.491,17.602-9.956,25.771-16.423
				c11.929-9.443,22.014-20.351,30.211-32.262C269.083,182.824,249.987,143.684,234.268,119.612z"/>
		</g>
		<g>
			<path style="fill:#8B8F91;" d="M198.439,222.457c-9.61,1.988-32.82,6.031-62.645,6.031c-0.734,0-1.467-0.003-2.209-0.008
				c-33.882-0.228-81.942-6.103-125.487-31.518c5.32,15.41,13.277,30.203,23.969,43.71c41.43,52.335,111.006,69.266,170.137,46.312
				C205.108,265.279,203.711,243.366,198.439,222.457z"/>
		</g>
		<g>
			<path style="fill:#D0D5D9;" d="M75.666,132.173c6.25-42.537,30.349-78.077,49.641-100.533
				c12.069-14.047,23.617-24.72,31.457-31.405C121.775-1.729,85.959,8.603,56.321,32.067C33.397,50.215,17.272,73.764,8.31,99.468
				C28.19,115.33,51.296,126.374,75.666,132.173z"/>
		</g>
	</g>
	<g>
		<g>
			<path style="fill:#8B8F91;" d="M195.086,210.88c-8.035-24.555-21.534-47.331-39.79-66.244
				c-13.003,2.859-26.201,4.275-39.35,4.275c-39.856,0-79.246-12.889-111.337-37.127c-5.632,22.144-6.141,45.451-1.302,67.992
				c0.005,0.003,0.01,0.006,0.016,0.01c43.791,29.833,94.872,36.42,130.011,36.694C162.106,216.694,185.189,212.852,195.086,210.88z
				"/>
		</g>
		<g>
			<path style="fill:#D0D5D9;" d="M243.024,33.941c-20.343-16.82-44.398-27.529-69.488-31.813
				C168.327,6.03,98.022,60.004,87.44,134.562c22.503,3.739,45.788,3.063,68.372-2.349
				C167.684,94.977,199.619,58.974,243.024,33.941z"/>
		</g>
		<g>
			<path style="fill:#D0D5D9;" d="M75.666,132.173c6.25-42.537,30.349-78.077,49.641-100.533
				c12.069-14.047,23.617-24.72,31.457-31.405C121.775-1.729,85.959,8.603,56.321,32.067C33.397,50.215,17.272,73.764,8.31,99.468
				C28.19,115.33,51.296,126.374,75.666,132.173z"/>
		</g>
	</g>
	<g style="opacity:0.51;">
		<path style="fill:#8B8F91;" d="M121.611,267.937c-34.883,0-67.024-11.723-92.715-31.433c1.032,1.4,2.084,2.792,3.172,4.166
			c41.43,52.335,111.006,69.266,170.137,46.312c1.888-14.114,1.946-28.315,0.314-42.272
			C179.068,259.422,151.336,267.937,121.611,267.937z"/>
	</g>
	<g style="opacity:0.51;">
		<path style="fill:#ABAFB2;" d="M213.587,237.071c2.21,14.571,2.691,29.443,1.313,44.28c8.961-4.491,17.602-9.956,25.771-16.423
			c11.929-9.443,22.014-20.351,30.211-32.262c-0.743-20.574-4.437-39.319-9.62-55.939
			C250.73,200.703,234.209,221.449,213.587,237.071z"/>
	</g>
	<g style="opacity:0.51;">
		<path style="fill:#ABAFB2;" d="M264.929,56.322c-1.91-2.413-3.883-4.747-5.91-7.009c9.651,20.01,15.061,42.45,15.061,66.154
			c0,15.109-2.208,29.7-6.301,43.48c6.248,16.293,11.342,34.935,13.743,55.612C306.256,164.672,301.784,102.874,264.929,56.322z"/>
	</g>
</g>
<g>
</g>
<g>
</g>
<g>
</g>
<g>
</g>
<g>
</g>
<g>
</g>
<g>
</g>
<g>
</g>
<g>
</g>
<g>
</g>
<g>
</g>
<g>
</g>
<g>
</g>
<g>
</g>
<g>
</g>
</svg>
